<svg width="79" height="15" viewBox="0 0 79 15" fill="none" xmlns="http://www.w3.org/2000/svg">
<path d="M10.4688 14H8.4438L6.13981 8.555H2.8728V14H0.946805V0.985999H6.1128C7.07881 0.985999 7.87981 1.136 8.51581 1.436C9.1518 1.73 9.6258 2.15 9.93781 2.696C10.2498 3.242 10.4058 3.887 10.4058 4.631C10.4058 5.333 10.2858 5.918 10.0458 6.386C9.81181 6.854 9.50581 7.235 9.1278 7.529C8.75581 7.823 8.36281 8.054 7.9488 8.222L10.4688 14ZM5.59081 6.998C6.49681 6.998 7.1988 6.803 7.6968 6.413C8.1948 6.017 8.4438 5.453 8.4438 4.721C8.4438 4.001 8.21581 3.455 7.75981 3.083C7.30981 2.711 6.69781 2.525 5.92381 2.525H2.8728V6.998H5.59081ZM16.3555 14.18C15.4855 14.18 14.7235 13.994 14.0695 13.622C13.4215 13.244 12.9175 12.698 12.5575 11.984C12.2035 11.27 12.0265 10.406 12.0265 9.392C12.0265 8.414 12.1945 7.559 12.5305 6.827C12.8725 6.095 13.3675 5.528 14.0155 5.126C14.6635 4.718 15.4465 4.514 16.3645 4.514C17.2405 4.514 17.9995 4.706 18.6415 5.09C19.2835 5.468 19.7815 6.023 20.1355 6.755C20.4895 7.481 20.6665 8.36 20.6665 9.392C20.6665 10.334 20.4985 11.165 20.1625 11.885C19.8325 12.605 19.3465 13.169 18.7045 13.577C18.0685 13.979 17.2855 14.18 16.3555 14.18ZM16.3645 12.695C16.8925 12.695 17.3335 12.557 17.6875 12.281C18.0475 11.999 18.3175 11.606 18.4975 11.102C18.6775 10.592 18.7675 10.004 18.7675 9.338C18.7675 8.72 18.6865 8.159 18.5245 7.655C18.3685 7.145 18.1135 6.74 17.7595 6.44C17.4055 6.14 16.9405 5.99 16.3645 5.99C15.8245 5.99 15.3745 6.128 15.0145 6.404C14.6545 6.674 14.3815 7.061 14.1955 7.565C14.0155 8.063 13.9255 8.654 13.9255 9.338C13.9255 9.944 14.0065 10.502 14.1685 11.012C14.3305 11.522 14.5915 11.93 14.9515 12.236C15.3115 12.542 15.7825 12.695 16.3645 12.695ZM22.7357 14V4.694H24.6077V6.035C24.8717 5.627 25.2317 5.273 25.6877 4.973C26.1437 4.667 26.7317 4.514 27.4517 4.514C27.7877 4.514 28.1267 4.571 28.4687 4.685C28.8167 4.799 29.1347 4.97 29.4227 5.198C29.7167 5.42 29.9477 5.696 30.1157 6.026C30.4097 5.582 30.8027 5.219 31.2947 4.937C31.7867 4.655 32.3387 4.514 32.9507 4.514C33.2807 4.514 33.6227 4.568 33.9767 4.676C34.3307 4.778 34.6577 4.955 34.9577 5.207C35.2637 5.453 35.5097 5.795 35.6957 6.233C35.8877 6.671 35.9837 7.226 35.9837 7.898V14H34.0487V8.105C34.0487 7.595 33.9617 7.196 33.7877 6.908C33.6197 6.62 33.3977 6.419 33.1217 6.305C32.8517 6.185 32.5637 6.125 32.2577 6.125C31.9817 6.125 31.6937 6.179 31.3937 6.287C31.0937 6.395 30.8387 6.575 30.6287 6.827C30.4187 7.079 30.3137 7.421 30.3137 7.853V14H28.3877V7.691C28.3877 7.349 28.2947 7.061 28.1087 6.827C27.9287 6.593 27.7007 6.419 27.4247 6.305C27.1547 6.185 26.8847 6.125 26.6147 6.125C26.3147 6.125 26.0147 6.185 25.7147 6.305C25.4147 6.425 25.1627 6.614 24.9587 6.872C24.7607 7.124 24.6617 7.451 24.6617 7.853V14H22.7357ZM41.0254 14.18C40.4254 14.18 39.8914 14.072 39.4234 13.856C38.9614 13.64 38.5984 13.328 38.3344 12.92C38.0704 12.512 37.9384 12.02 37.9384 11.444C37.9384 10.412 38.3044 9.641 39.0364 9.131C39.7684 8.621 40.9354 8.351 42.5374 8.321L44.0674 8.276V7.601C44.0674 7.067 43.9084 6.647 43.5904 6.341C43.2724 6.035 42.7834 5.885 42.1234 5.891C41.6254 5.891 41.1814 6.005 40.7914 6.233C40.4074 6.461 40.1554 6.836 40.0354 7.358H38.3614C38.3974 6.74 38.5744 6.221 38.8924 5.801C39.2164 5.375 39.6604 5.054 40.2244 4.838C40.7884 4.622 41.4514 4.514 42.2134 4.514C43.0594 4.514 43.7554 4.631 44.3014 4.865C44.8474 5.093 45.2524 5.429 45.5164 5.873C45.7864 6.317 45.9214 6.857 45.9214 7.493V14H44.2924L44.1394 12.29C43.7914 13.004 43.3504 13.499 42.8164 13.775C42.2884 14.045 41.6914 14.18 41.0254 14.18ZM41.6284 12.839C41.9224 12.839 42.2134 12.788 42.5014 12.686C42.7894 12.578 43.0504 12.434 43.2844 12.254C43.5184 12.068 43.7044 11.861 43.8424 11.633C43.9864 11.405 44.0614 11.171 44.0674 10.931V9.392L42.8074 9.419C42.1654 9.425 41.6194 9.491 41.1694 9.617C40.7254 9.743 40.3834 9.938 40.1434 10.202C39.9094 10.466 39.7924 10.817 39.7924 11.255C39.7924 11.753 39.9664 12.143 40.3144 12.425C40.6624 12.701 41.1004 12.839 41.6284 12.839ZM48.6282 14V4.694H50.5092V6.035C50.6592 5.783 50.8602 5.546 51.1122 5.324C51.3702 5.102 51.6852 4.922 52.0572 4.784C52.4352 4.646 52.8702 4.577 53.3622 4.577C53.9442 4.577 54.4812 4.694 54.9732 4.928C55.4712 5.156 55.8702 5.516 56.1702 6.008C56.4702 6.494 56.6202 7.124 56.6202 7.898V14H54.6942V8.105C54.6942 7.439 54.5142 6.944 54.1542 6.62C53.8002 6.296 53.3412 6.134 52.7772 6.134C52.3992 6.134 52.0392 6.197 51.6972 6.323C51.3552 6.449 51.0792 6.641 50.8692 6.899C50.6592 7.151 50.5542 7.469 50.5542 7.853V14H48.6282ZM63.6359 6.08H61.5479L61.5569 11.633C61.5569 11.939 61.5869 12.164 61.6469 12.308C61.7129 12.446 61.8209 12.536 61.9709 12.578C62.1269 12.614 62.3369 12.632 62.6009 12.632H63.6899V13.883C63.5699 13.931 63.3899 13.973 63.1499 14.009C62.9159 14.045 62.6129 14.063 62.2409 14.063C61.5509 14.063 61.0139 13.97 60.6299 13.784C60.2519 13.598 59.9879 13.331 59.8379 12.983C59.6939 12.629 59.6219 12.203 59.6219 11.705V6.08H58.1099V4.694H59.6759L60.1529 1.958H61.5479V4.685H63.6359V6.08ZM67.9415 4.694V14H66.0875V4.694H67.9415ZM67.9775 0.995V2.894H66.0425V0.995H67.9775ZM74.4954 4.514C75.1914 4.514 75.8094 4.652 76.3494 4.928C76.8954 5.198 77.3364 5.576 77.6724 6.062C78.0084 6.548 78.2124 7.115 78.2844 7.763H76.6194C76.5654 7.457 76.4484 7.172 76.2684 6.908C76.0944 6.644 75.8574 6.434 75.5574 6.278C75.2634 6.116 74.9124 6.035 74.5044 6.035C73.7604 6.035 73.1544 6.308 72.6864 6.854C72.2184 7.4 71.9844 8.237 71.9844 9.365C71.9844 10.397 72.2004 11.219 72.6324 11.831C73.0704 12.443 73.7064 12.749 74.5404 12.749C74.9424 12.749 75.2904 12.665 75.5844 12.497C75.8844 12.329 76.1214 12.113 76.2954 11.849C76.4694 11.585 76.5804 11.312 76.6284 11.03H78.2664C78.2004 11.654 77.9964 12.203 77.6544 12.677C77.3184 13.151 76.8774 13.52 76.3314 13.784C75.7914 14.048 75.1794 14.18 74.4954 14.18C73.6494 14.18 72.8994 13.997 72.2454 13.631C71.5914 13.259 71.0784 12.716 70.7064 12.002C70.3404 11.282 70.1574 10.409 70.1574 9.383C70.1574 8.417 70.3284 7.568 70.6704 6.836C71.0124 6.104 71.5074 5.534 72.1554 5.126C72.8094 4.718 73.5894 4.514 74.4954 4.514Z" fill="#19272E"/>
</svg>
